# AST/ASF file generated using VICON BodyLanguage
# -----------------------------------------------
:version 1.10
:name VICON
:units
  mass 1.0
  length 0.45
  angle deg
:documentation
   .ast/.asf automatically generated from VICON data using
   VICON BodyBuilder and BodyLanguage model FoxedUp or BRILLIANT.MOD
:root
   order TX TY TZ RX RY RZ
   axis XYZ
   position 0 0 0  
   orientation 0 0 0 
:bonedata
  begin
     id 1 
     name lhipjoint
     direction 0.611823 -0.767273 0.19226 
     length 2.47422 
     axis 0 0 0  XYZ
  end
  begin
     id 2 
     name lfemur
     direction 0.34202 -0.939693 0  
     length 7.40835  
     axis 0 0 20  XYZ
    dof rx ry rz
    limits (-160.0 20.0)
           (-70.0 70.0)
           (-60.0 70.0)
  end
  begin
     id 3 
     name ltibia
     direction 0.34202 -0.939693 0   
     length 8.03679   
     axis 0 0 20   XYZ
    dof rx
    limits (-10.0 170.0)
  end
  begin
     id 4 
     name lfoot
     direction 0.0883598 -0.242766 0.966052   
     length 2.06694   
     axis -90 7.62852e-016 20   XYZ
    dof rx rz
    limits (-45.0 90.0)
           (-70.0 20.0)
  end
  begin
     id 5 
     name ltoes
     direction 1.53617e-011 -4.21699e-011 1   
     length 1.03711   
     axis -90 7.62852e-016 20   XYZ
    dof rx
    limits (-90.0 20.0)
  end
  begin
     id 6 
     name rhipjoint
     direction -0.590066 -0.783143 0.196236   
     length 2.42408  
     axis 0 0 0  XYZ 
  end
  begin
     id 7 
     name rfemur
     direction -0.34202 -0.939693 0   
     length 7.88987   
     axis 0 0 -20   XYZ
    dof rx ry rz
    limits (-160.0 20.0)
           (-70.0 70.0)
           (-70.0 60.0)
  end
  begin
     id 8 
     name rtibia
     direction -0.34202 -0.939693 0   
     length 7.87584   
     axis 0 0 -20   XYZ
    dof rx
    limits (-10.0 170.0)
 end
 begin
     id 9 
     name rfoot
     direction -0.130476 -0.358481 0.924374   
     length 2.21745  
     axis -90 -7.62852e-016 -20   XYZ
    dof rx rz
    limits (-45.0 90.0)
           (-20.0 70.0)
  end
  begin
     id 10 
     name rtoes
     direction 8.20695e-005 8.89091e-005 1   
     length 1.09536   
     axis -90 -7.62852e-016 -20   XYZ
    dof rx
    limits (-90.0 20.0)
  end
  begin
     id 11 
     name lowerback
     direction 0.00981224 0.999875 -0.0124197   
     length 1.94808   
     axis 0 0 0   XYZ
    dof rx ry rz
    limits (-20.0 45.0)
           (-30.0 30.0)
           (-30.0 30.0)
  end
  begin
     id 12 
     name upperback
     direction 0.038911 0.999194 0.00981686   
     length 1.94415   
     axis 0 0 0   XYZ
    dof rx ry rz
    limits (-20.0 45.0)
           (-30.0 30.0)
           (-30.0 30.0)
  end
  begin
     id 13 
     name thorax
     direction 0.0330692 0.999334 0.0154389   
     length 1.94117   
     axis 0 0 0   XYZ
    dof rx ry rz
    limits (-20.0 45.0)
           (-30.0 30.0)
           (-30.0 30.0)
  end
  begin
     id 14 
     name lowerneck
     direction -0.0374305 0.99415 0.10132   
     length 1.87291   
     axis 0 0 0   XYZ
    dof rx ry rz
    limits (-20.0 45.0)
           (-30.0 30.0)
           (-30.0 30.0)
  end
  begin
     id 15 
     name upperneck
     direction 0.0120692 0.985979 -0.166431   
     length 1.89248   
     axis 0 0 0   XYZ
    dof rx ry rz
    limits (-20.0 45.0)
           (-30.0 30.0)
           (-30.0 30.0)
  end
  begin
     id 16
     name head
     direction 0.00629908 0.997708 -0.06737  
     length 1.90559  
     axis 0 0 0   XYZ
    dof rx ry rz
    limits (-20.0 45.0)
           (-30.0 30.0)
           (-30.0 30.0)
  end
  begin
     id 17 
     name lclavicle
     direction 0.961536 0.27308 -0.0295863  
     length 3.52757  
     axis 0 0 0   XYZ
    dof ry rz
    limits (-20.0 10.0)
           (0.0 20.0)
  end
  begin
     id 18 
     name lhumerus
     direction 1 -4.48969e-011 2.61153e-029   
     length 5.14845   
     axis 180 -30 -90   XYZ
    dof rx ry rz
    limits (-60.0 90.0)
           (-90.0 90.0)
           (-90.0 90.0)
  end
  begin
     id 19
     name lradius
     direction 1 -4.4896e-011 -3.37549e-027   
     length 3.43674   
     axis 180 -30 -90   XYZ
    dof rx
    limits (-10.0 170.0)
  end
  begin
     id 20
     name lwrist
     direction 1 -4.48969e-011 2.56952e-028   
     length 1.71837   
     axis -5.12785e-016 90 90   XYZ
    dof ry
    limits (-180.0 0.0)
 end
  begin
     id 21 
     name lhand
     direction 1 -4.49094e-011 5.13905e-028   
     length 0.588709   
     axis -3.27915e-016 90 90   XYZ
    dof rx rz
    limits (-90.0 90.0)
           (-45.0 45.0)
  end
  begin
     id 22 
     name lfingers
     direction 1 -4.48821e-011 1.02781e-027   
     length 0.474633   
     axis -6.5583e-016 90 90   XYZ
    dof rx
    limits (0.0 90.0)
  end
  begin
     id 23
     name lthumb
     direction 0.707107 -6.34922e-011 0.707107   
     length 0.68148   
     axis -90 45 2.85299e-015   XYZ
    dof rx rz
    limits (-45.0 45.0)
           (-45.0 45.0)
  end
  begin
     id 24 
     name rclavicle
     direction -0.940964 0.333844 -0.0559866   
     length 3.55948  
     axis 0 0 0   XYZ 
    dof ry rz
    limits (-10.0 20.0)
           (-20.0 0.0)
  end
  begin
     id 25 
     name rhumerus
     direction -1 -4.48973e-011 3.15259e-027  
     length 5.42185   
     axis 180 30 90   XYZ
    dof rx ry rz
    limits (-90.0 60.0)
           (-90.0 90.0)
           (-90.0 90.0)
  end
  begin
     id 26 
     name rradius
     direction -1 -4.48954e-011 -2.56271e-027   
     length 3.51317   
     axis 180 30 90   XYZ
    dof rx
    limits (-10.0 170.0)
  end
  begin
     id 27 
     name rwrist
     direction -1 -4.48943e-011 2.56952e-028   
     length 1.75658   
     axis -5.12785e-016 -90 -90   XYZ
    dof ry
    limits (-180.0 0.0)
  end
  begin
     id 28
     name rhand
     direction -1 -4.4912e-011 5.13905e-028   
     length 0.663187   
     axis -3.27915e-016 -90 -90   XYZ
    dof rx rz
    limits (-90.0 90.0)
           (-45.0 45.0)
  end
  begin
     id 29
     name rfingers
     direction -1 -4.48914e-011 1.02781e-027   
     length 0.534679   
     axis -6.5583e-016 -90 -90   XYZ
    dof rx
    limits (0.0 90.0)
  end
  begin
     id 30
     name rthumb
     direction -0.707107 -6.35033e-011 0.707107   
     length 0.767695   
     axis -90 -45 -2.85299e-015   XYZ
    dof rx rz
    limits (-45.0 45.0)
           (-45.0 45.0)
  end
:hierarchy
  begin
    root lhipjoint rhipjoint lowerback
    lhipjoint lfemur
    lfemur ltibia
    ltibia lfoot
    lfoot ltoes
    rhipjoint rfemur
    rfemur rtibia
    rtibia rfoot
    rfoot rtoes
    lowerback upperback
    upperback thorax
    thorax lowerneck lclavicle rclavicle
    lowerneck upperneck
    upperneck head
    lclavicle lhumerus
    lhumerus lradius
    lradius lwrist
    lwrist lhand lthumb
    lhand lfingers
    rclavicle rhumerus
    rhumerus rradius
    rradius rwrist
    rwrist rhand rthumb
    rhand rfingers
  end

#!OML:ASF F:\VICON\USERDATA\INSTALL\Justin_a\Justin_a.ASF
:FULLY-SPECIFIED
:DEGREES
3068
root 10.3214 17.8246 -4.06972 -529.16 -147.246 537.993
lowerback 2.64861 0.403736 -1.67572
upperback 0.392481 0.519561 3.4197
thorax -1.12954 0.267703 4.44806
lowerneck -5.88489 -12.08 -8.77417
upperneck 32.3327 -19.0538 7.20789
head 13.4766 -8.83225 1.55161
rclavicle 3.97569e-016 3.97569e-015
rhumerus -31.7066 -4.56383 -82.087
rradius 37.8379
rwrist -4.0878
rhand -33.4974 13.4532
rfingers 7.12502
rthumb -6.69439 -16.4209
lclavicle 3.97569e-016 3.97569e-015
lhumerus -40.3311 15.5435 84.3974
lradius 36.8644
lwrist 7.41312
lhand -16.7345 26.0009
lfingers 7.12502
lthumb 9.49148 55.7671
rfemur -31.6135 0.191782 29.3816
rtibia 40.7892
rfoot -20.551 -11.3506
rtoes 4.18375
lfemur -31.9497 1.19417 -16.6315
ltibia 58.2013
lfoot -16.3168 7.33345
ltoes -15.6827
3069
root 10.3525 17.8162 -4.01474 -529.13 -145.878 537.912
lowerback 2.71397 0.425437 -1.52233
upperback 0.396484 0.552265 3.44984
thorax -1.16388 0.283509 4.39076
lowerneck -5.9317 -11.9758 -9.10798
upperneck 32.3796 -18.9146 7.33744
head 13.5489 -8.79633 1.66656
rclavicle -2.78299e-015 -2.70347e-014
rhumerus -31.7063 -4.29529 -82.1761
rradius 38.5649
rwrist -4.23174
rhand -33.5391 12.6329
rfingers 7.12502
rthumb -6.73462 -17.24
lclavicle -2.78299e-015 -2.70347e-014
lhumerus -40.5051 14.8578 84.7582
lradius 36.9346
lwrist 7.573
lhand -17.2308 26.1605
lfingers 7.12502
lthumb 9.01262 55.948
rfemur -31.5721 0.502496 29.2122
rtibia 41.0478
rfoot -20.6443 -10.6906
rtoes 2.52852
lfemur -31.6954 -0.14933 -16.1278
ltibia 56.8267
lfoot -17.3767 6.76397
ltoes -15.2347
3070
root 10.3812 17.8044 -3.95912 -529.12 -144.497 537.954
lowerback 2.75276 0.471875 -1.44585
upperback 0.389624 0.615844 3.40313
thorax -1.19694 0.315364 4.29596
lowerneck -6.01974 -11.8691 -8.88928
upperneck 32.2917 -18.7096 7.10881
head 13.4491 -8.71251 1.57912
rclavicle -4.57205e-015 -1.43125e-014
rhumerus -31.7429 -3.78625 -82.4446
rradius 39.6882
rwrist -4.70971
rhand -34.0969 9.56756
rfingers 7.12502
rthumb -7.27314 -20.2874
lclavicle -4.57205e-015 -1.43125e-014
lhumerus -40.6591 14.1699 85.041
lradius 37.1104
lwrist 7.71239
lhand -17.3591 26.5915
lfingers 7.12502
lthumb 8.88882 56.3842
rfemur -31.5892 0.901646 28.9072
rtibia 41.3174
rfoot -20.7612 -10.0373
rtoes 1.14571
lfemur -31.4842 -1.50334 -15.7764
ltibia 55.2703
lfoot -18.2096 6.17034
ltoes -14.576
3071
root 10.4117 17.7934 -3.90807 -529.217 -143.112 538.122
lowerback 2.86768 0.465246 -1.52142
upperback 0.468864 0.602058 3.30326
thorax -1.17841 0.307236 4.23499
lowerneck -6.26199 -11.7278 -8.7657
upperneck 32.2667 -18.4909 7.03315
head 13.4402 -8.60762 1.55239
rclavicle 3.02153e-014 3.65764e-014
rhumerus -31.4575 -3.69505 -82.6152
rradius 39.8386
rwrist -4.98144
rhand -33.8094 11.645
rfingers 7.12502
rthumb -6.99558 -18.2194
lclavicle 3.02153e-014 3.65764e-014
lhumerus -40.6145 13.8782 85.0373
lradius 37.2175
lwrist 7.59284
lhand -17.2035 26.703
lfingers 7.12502
lthumb 9.03896 56.4893
rfemur -31.6221 1.28966 28.4784
rtibia 41.5744
rfoot -20.848 -9.32727
rtoes 0.659248
lfemur -31.2862 -2.80894 -15.5442
ltibia 53.666
lfoot -18.9414 5.37834
ltoes -14.8238
3072
root 10.4398 17.7911 -3.85607 -529.453 -141.622 538.539
lowerback 2.94347 0.462039 -1.86435
upperback 0.506717 0.585498 3.15576
thorax -1.1824 0.300043 4.27661
lowerneck -6.44026 -11.5727 -8.90017
upperneck 32.323 -18.3014 7.1639
head 13.5138 -8.52279 1.63879
rclavicle -2.46493e-014 3.89618e-014
rhumerus -31.3777 -3.31292 -82.9362
rradius 40.5336
rwrist -5.25336
rhand -33.8009 10.9667
rfingers 7.12502
rthumb -6.98739 -18.8979
lclavicle -2.46493e-014 3.89618e-014
lhumerus -40.6496 13.8595 84.8182
lradius 37.2304
lwrist 7.40067
lhand -17.174 26.5682
lfingers 7.12502
lthumb 9.06748 56.3533
rfemur -31.6565 1.60058 27.8577
rtibia 41.812
rfoot -20.966 -8.61002
rtoes -0.370411
lfemur -30.9857 -3.92712 -15.5261
ltibia 52.0695
lfoot -20.0192 4.13927
ltoes -15.7507
